<mxfile host="app.diagrams.net" modified="2021-05-29T06:14:34.752Z" agent="5.0 (Windows NT 6.1; Win64; x64) AppleWebKit/537.36 (KHTML, like Gecko) Chrome/88.0.4324.146 Safari/537.36" etag="O8RMg4xLkdT-0R0xpq7X" version="14.7.2" type="github">
  <diagram id="pewfeq-oqLrOqeAnbWWz" name="Page-1">
    <mxGraphModel dx="1476" dy="762" grid="1" gridSize="10" guides="1" tooltips="1" connect="1" arrows="1" fold="1" page="1" pageScale="1" pageWidth="827" pageHeight="1169" background="none" math="0" shadow="0">
      <root>
        <mxCell id="0" />
        <mxCell id="1" parent="0" />
      </root>
    </mxGraphModel>
  </diagram>
</mxfile>
